<svg width="17" height="17" viewBox="0 0 17 17" fill="none" xmlns="http://www.w3.org/2000/svg">
    <path d="M10.2778 4.5V2.5C10.2778 1.96957 10.0905 1.46086 9.75708 1.08579C9.42368 0.710714 8.9715 0.5 8.5 0.5H2.27778C1.80628 0.5 1.3541 0.710714 1.0207 1.08579C0.687301 1.46086 0.5 1.96957 0.5 2.5V14.5C0.5 15.0304 0.687301 15.5391 1.0207 15.9142C1.3541 16.2893 1.80628 16.5 2.27778 16.5H8.5C8.9715 16.5 9.42368 16.2893 9.75708 15.9142C10.0905 15.5391 10.2778 15.0304 10.2778 14.5V12.5M5.83333 8.5H16.5M13.8333 11.5L16.5 8.5L13.8333 5.5" stroke="#F9F9F9" stroke-opacity="0.7" stroke-linecap="round" stroke-linejoin="round"/>
</svg>
