<svg width="20" height="21" viewBox="0 0 20 21" fill="none" xmlns="http://www.w3.org/2000/svg">
<path d="M12.364 5.24264L5.86396 11.7426C5.46614 12.1405 5.24264 12.68 5.24264 13.2426C5.24264 13.8052 5.46614 14.3448 5.86396 14.7426C6.26179 15.1405 6.80135 15.364 7.36396 15.364C7.92657 15.364 8.46614 15.1405 8.86396 14.7426L15.364 8.24264C16.1596 7.44699 16.6066 6.36786 16.6066 5.24264C16.6066 4.11742 16.1596 3.03829 15.364 2.24264C14.5683 1.44699 13.4892 1 12.364 1C11.2387 1 10.1596 1.44699 9.36396 2.24264L2.86396 8.74264C1.67049 9.93611 1 11.5548 1 13.2426C1 14.9305 1.67049 16.5492 2.86396 17.7426C4.05744 18.9361 5.67613 19.6066 7.36396 19.6066C9.05179 19.6066 10.6705 18.9361 11.864 17.7426L18.364 11.2426" stroke="#4D4D4F" stroke-width="2" stroke-linecap="round" stroke-linejoin="round"/>
</svg>
