<svg width="21" height="21" viewBox="0 0 21 21" fill="none" xmlns="http://www.w3.org/2000/svg">
<path d="M0.75 3.08333C0.75 2.46449 0.995833 1.871 1.43342 1.43342C1.871 0.995833 2.46449 0.75 3.08333 0.75H17.0833C17.7022 0.75 18.2957 0.995833 18.7332 1.43342C19.1708 1.871 19.4167 2.46449 19.4167 3.08333V17.0833C19.4167 17.7022 19.1708 18.2957 18.7332 18.7332C18.2957 19.1708 17.7022 19.4167 17.0833 19.4167H3.08333C2.46449 19.4167 1.871 19.1708 1.43342 18.7332C0.995833 18.2957 0.75 17.7022 0.75 17.0833V3.08333Z" fill="#F9F9F9"/>
<path d="M5.41667 0.75V19.4167V0.75Z" fill="#F9F9F9"/>
<path d="M14.75 0.75V19.4167V0.75Z" fill="#F9F9F9"/>
<path d="M0.75 5.41667H5.41667H0.75Z" fill="#F9F9F9"/>
<path d="M0.75 14.75H5.41667H0.75Z" fill="#F9F9F9"/>
<path d="M0.75 10.0833H19.4167H0.75Z" fill="#F9F9F9"/>
<path d="M14.75 5.41667H19.4167H14.75Z" fill="#F9F9F9"/>
<path d="M14.75 14.75H19.4167H14.75Z" fill="#F9F9F9"/>
<path d="M5.41667 0.75V19.4167M14.75 0.75V19.4167M0.75 5.41667H5.41667M0.75 14.75H5.41667M0.75 10.0833H19.4167M14.75 5.41667H19.4167M14.75 14.75H19.4167M0.75 3.08333C0.75 2.46449 0.995833 1.871 1.43342 1.43342C1.871 0.995833 2.46449 0.75 3.08333 0.75H17.0833C17.7022 0.75 18.2957 0.995833 18.7332 1.43342C19.1708 1.871 19.4167 2.46449 19.4167 3.08333V17.0833C19.4167 17.7022 19.1708 18.2957 18.7332 18.7332C18.2957 19.1708 17.7022 19.4167 17.0833 19.4167H3.08333C2.46449 19.4167 1.871 19.1708 1.43342 18.7332C0.995833 18.2957 0.75 17.7022 0.75 17.0833V3.08333Z" stroke="#0D0D0D" stroke-width="1.5" stroke-linecap="round" stroke-linejoin="round"/>
</svg>
