<svg width="11" height="11" viewBox="0 0 11 11" fill="none" xmlns="http://www.w3.org/2000/svg">
<path d="M10.1107 10.1112L6.99957 7.00005M0.777344 4.40746C0.777344 4.88411 0.871227 5.35609 1.05363 5.79646C1.23604 6.23683 1.5034 6.63695 1.84044 6.974C2.17748 7.31104 2.57761 7.5784 3.01797 7.7608C3.45834 7.94321 3.93032 8.03709 4.40697 8.03709C4.88362 8.03709 5.35561 7.94321 5.79597 7.7608C6.23634 7.5784 6.63647 7.31104 6.97351 6.974C7.31055 6.63695 7.57791 6.23683 7.76031 5.79646C7.94272 5.35609 8.0366 4.88411 8.0366 4.40746C8.0366 3.93081 7.94272 3.45883 7.76031 3.01846C7.57791 2.5781 7.31055 2.17797 6.97351 1.84093C6.63647 1.50388 6.23634 1.23653 5.79597 1.05412C5.35561 0.871715 4.88362 0.777832 4.40697 0.777832C3.93032 0.777832 3.45834 0.871715 3.01797 1.05412C2.57761 1.23653 2.17748 1.50388 1.84044 1.84093C1.5034 2.17797 1.23604 2.5781 1.05363 3.01846C0.871227 3.45883 0.777344 3.93081 0.777344 4.40746Z" stroke="#111111" stroke-opacity="0.2" stroke-width="1.55556" stroke-linecap="round" stroke-linejoin="round"/>
</svg>
